<?xml version="1.0" encoding="UTF-8"?>
<svg width="538px" height="549px" viewBox="0 0 538 549" version="1.1" xmlns="http://www.w3.org/2000/svg" xmlns:xlink="http://www.w3.org/1999/xlink">
    <title>Group</title>
    <g id="Page-1" stroke="none" stroke-width="1" fill="none" fill-rule="evenodd">
        <g id="Artboard" transform="translate(-111.000000, -106.000000)" fill-rule="nonzero">
            <g id="Group" transform="translate(111.000000, 106.000000)">
                <path d="M533.07,217.506 C530.349,207.826 525.21,200.414 520.07,196.179 C510.85,184.986 505.106,189.524 495.281,195.574 C489.235,199.204 493.014,202.229 481.828,207.977 C473.061,213.422 465.805,216.598 465.805,216.598 C465.805,216.598 467.015,217.808 468.375,219.17 C478.956,230.211 485.002,263.488 481.979,252.446 C478.956,241.404 469.887,231.875 469.887,231.875 C477.444,246.093 481.979,276.193 483.491,290.563 C485.002,304.781 488.025,327.015 488.025,327.015 C488.025,327.015 486.514,317.486 481.979,312.797 C477.444,308.108 477.444,300.092 477.444,300.092 C477.444,300.092 475.933,317.486 480.468,328.679 C485.002,339.721 495.583,360.443 495.583,368.308 C495.583,376.173 495.583,404.761 500.118,406.425 C504.653,407.937 509.187,400.072 516.745,392.206 C524.303,384.341 534.884,358.93 533.372,347.889 C531.861,336.847 534.884,311.436 536.395,295.554 C537.605,279.37 537.605,233.388 533.07,217.506 Z M486.816,201.624 C493.165,193.608 506.92,188.919 509.187,187.104 C511.455,185.288 516.443,167.591 513.571,155.189 C513.571,154.735 513.42,154.432 513.42,153.978 C510.396,134.92 495.281,106.484 478.805,100.131 C456.585,91.661 436.632,78.3505 417.435,64.2837 C406.25,56.1159 396.425,45.8305 384.181,39.1753 C368.461,30.7049 355.008,40.5366 340.648,34.0326 C330.067,29.3436 319.637,16.6381 304.522,11.798 C289.406,7.10903 263.861,10.2854 250.257,7.10903 C236.653,3.93265 206.572,-3.93265 185.562,2.4201 C169.993,7.10903 156.389,17.6969 146.715,30.5537 C137.796,42.5029 135.378,59.5948 123.437,69.2752 C113.46,77.2918 99.705,79.1068 88.9729,86.6696 C77.6362,94.8374 68.2645,105.728 62.2183,118.433 C57.6836,127.962 54.9628,138.399 48.7654,146.718 C40.7541,157.457 28.9639,162.751 23.3711,175.457 C15.2087,193.91 3.26735,213.422 1.0000031,233.69 C-0.66272,249.875 4.17428,266.362 12.639,280.126 C18.383,289.504 25.7896,297.672 34.1032,304.781 C39.2425,309.318 51.7885,315.369 53.7535,322.326 C54.0558,323.536 55.8697,329.435 56.172,330.645 C65.2414,360.745 84.7406,409.903 84.7406,409.903 C84.7406,409.903 89.2752,381.316 92.2984,370.274 C95.775,357.115 88.6706,339.418 88.3683,326.108 C87.9148,308.259 91.8449,290.411 99.705,274.681 C109.379,255.471 124.948,241.253 142.785,230.665 C162.888,218.716 185.108,213.725 205.514,202.683 C219.723,194.969 228.944,185.288 245.722,183.322 C252.373,182.566 258.872,180.297 264.768,176.969 C269.453,174.096 273.686,168.802 279.581,170.012 C282.604,170.617 285.325,172.28 288.046,173.944 C298.173,179.994 311.475,178.784 322.66,177.272 C333.393,175.759 344.276,174.096 355.008,172.28 C359.996,171.373 367.705,171.524 372.089,169.104 C379.949,165.02 386.146,158.516 394.611,155.34 C402.622,152.466 410.482,152.768 417.435,157.911 C428.016,165.776 432.551,161.087 441.469,170.617 C447.818,177.423 475.328,190.885 474.724,202.532 C473.968,206.918 471.549,212.363 465.201,216.296 C465.805,216.447 480.468,209.641 486.816,201.624 Z M48.9165,310.377 C43.3237,300.848 38.4867,287.537 39.8472,275.588 C40.1495,272.261 44.9865,271.807 46.0446,274.832 C46.0446,274.832 46.0446,274.832 46.0446,274.983 C52.3931,292.378 49.0677,298.73 53.3001,318.242 C51.7885,315.368 50.2769,312.797 48.9165,310.377 Z" id="Shape" fill="#00B3B3"></path>
                <path d="M265.07,432.441 C263.256,421.096 257.966,411.113 247.687,403.853 C230.153,391.299 207.933,389.181 187.224,387.518 C164.853,385.702 142.331,386.307 120.262,390.694 C112.704,392.206 104.693,396.593 98.7981,401.584 C71.59,424.121 86.7056,469.649 100.9143,495.06 C109.984,511.396 123.739,525.765 141.273,532.723 C158.958,539.681 178.76,539.983 197.05,535.295 C204.456,533.479 211.561,530.757 218.363,527.278 C230.304,521.228 240.885,512.304 248.594,501.262 C259.326,485.985 264.314,467.532 265.675,449.079 C265.977,443.482 265.826,437.734 265.07,432.441 Z" id="Path" fill="#FCC96D"></path>
                <path d="M166.063,383.736 L192.061,385.097 L121.472,520.925 L105.298,504.438 L166.063,383.736 Z M142.936,384.19 L157.296,385.097 L99.5539,497.632 L91.3914,486.893 L142.936,384.19 Z" id="Combined-Shape" fill="#FFFFFF" opacity="0.2"></path>
                <path d="M150.04,540.135 C156.901391,541.713261 164.33851,542.220913 171.750598,542.066274 L172.297952,542.052 L172.21838,542.057157 C164.789202,542.451159 157.319838,541.846192 150.04,540.135 Z M203.109952,385.265 L204.636271,385.353656 C213.470388,385.874939 222.335571,386.523429 230.757,388.728 C240.734,391.299 250.408,396.139 257.21,403.853 C262.954,410.206 266.279,418.525 267.791,426.995 C271.57,447.717 265.675,469.801 258.57,489.313 C252.826,504.892 242.699,518.354 228.641,527.278 C217.456,534.387 204.607,538.32 191.608,540.286 C185.604283,541.183522 179.159774,541.860543 172.676935,542.043524 L172.297952,542.052 L172.914741,542.017296 C187.999701,541.090371 202.88924,536.055556 215.658177,527.811758 L216.246,527.429 C236.955,513.816 253.582,491.279 258.873,467.078 C264.768,440.76 258.117,408.542 233.629,393.719 C224.085353,387.988843 214.418862,386.073344 203.742394,385.308898 L203.109952,385.265 Z M147.47,383.736 C113.46,394.778 78.5432,402.038 92.7518,462.54 C106.961,523.043 155.028,540.891 155.028,540.891 C155.028,540.891 108.623,534.841 92.7518,484.926 C76.8804,435.012 77.0316,408.088 91.0891,397.198 L113.611,386.61 L147.47,383.736 Z" id="Combined-Shape" fill="#00918D"></path>
                <path d="M329.462,432.441 C331.276,421.096 336.567,411.113 346.845,403.853 C364.38,391.299 386.6,389.181 407.308,387.518 C429.679,385.702 452.201,386.307 474.27,390.694 C481.828,392.206 489.839,396.593 495.734,401.584 C522.942,424.121 507.827,469.649 493.618,495.06 C484.549,511.396 470.794,525.765 453.259,532.723 C435.574,539.681 415.773,539.983 397.483,535.295 C390.076,533.479 382.972,530.757 376.17,527.278 C364.228,521.228 353.647,512.304 345.939,501.262 C335.206,485.985 330.218,467.532 328.858,449.079 C328.404,443.482 328.556,437.734 329.462,432.441 Z" id="Path" fill="#FCC96D"></path>
                <path d="M439.353,381.165 L363.926,529.547 L354.101,522.589 L423.028,383.585 L439.353,381.165 Z M414.412,385.097 L349.717,513.211 L334.753,493.548 L386.751,387.518 L414.412,385.097 Z" id="Combined-Shape" fill="#FFFFFF" opacity="0.2"></path>
                <path d="M444.492,540.135 C437.212162,541.846192 429.742798,542.451159 422.31362,542.057157 L422.232948,542.052 L422.78176,542.066274 C429.885146,542.21447 437.011412,541.754415 443.631433,540.326736 Z M394.309,385.097 C382.216,385.702 371.484,387.366 360.903,393.719 C336.416,408.542 329.765,440.76 335.66,467.078 C340.95,491.279 357.578,513.816 378.286,527.429 C391.184667,535.899667 406.300222,541.076111 421.617259,542.017296 L422.232948,542.052 L421.855405,542.043524 C415.372435,541.860543 408.927717,541.183522 402.924,540.286 C389.925,538.32 377.077,534.387 365.891,527.278 C351.834,518.354 341.706,504.892 335.962,489.313 C328.858,469.801 322.963,447.717 326.742,426.995 C328.253,418.525 331.579,410.206 337.323,403.853 C344.125,396.139 353.799,391.299 363.775,388.728 C373.6,386.156 383.879,385.551 394.309,385.097 Z M447.062,383.736 L480.77,386.61 L503.292,397.198 C517.35,408.088 517.501,435.012 501.629,484.926 C485.758,534.841 439.353,540.891 439.353,540.891 C439.353,540.891 487.572,523.043 501.781,462.54 C515.989,402.038 481.072,394.778 447.062,383.736 L447.062,383.736 Z" id="Combined-Shape" fill="#00918D"></path>
                <path d="M487.421,406.273 L486.06,405.517 L483.944,405.971 C483.793,404.609 481.072,403.853 481.677,403.097 C481.677,403.097 481.979,402.643 482.735,403.248 C483.642,403.853 483.34,404.307 483.34,404.307 L484.7,404.912 C485.153,403.853 484.398,402.946 483.037,402.341 C481.677,401.736 480.921,401.736 480.316,402.492 C479.107,404.307 483.188,405.366 482.433,406.273 C481.828,406.878 480.165,405.971 480.619,405.063 L479.258,404.458 C479.258,404.458 478.351,405.971 480.921,407.332 C482.735,408.088 483.34,407.635 483.642,407.181 L483.944,407.181 L484.398,409.147 L485.758,409.903 L485.002,407.03 L487.421,406.273 Z" id="Path" fill="#00918D" opacity="0.49"></path>
                <path d="M532.012,388.879 C530.047,386.156 513.42,386.913 506.164,387.518 C498.909,388.123 474.724,378.14 421.365,379.198 C368.158,380.257 341.253,395.988 336.113,399.013 C332.637,401.131 327.649,400.677 323.87,400.677 C311.324,400.526 298.778,400.223 286.081,400.374 C280.79,400.374 275.349,400.677 270.058,400.677 C266.279,400.677 261.442,401.131 258.117,399.013 C252.977,395.988 226.072,380.257 172.865,379.198 C119.658,378.14 95.3215,388.123 88.066,387.518 C80.8105,386.913 64.1833,386.156 62.2183,388.879 C60.2533,391.601 59.1952,399.921 59.1952,404.609 C59.1952,407.483 63.7298,410.206 65.3926,412.021 C69.9272,416.71 73.555,421.853 75.3689,428.205 C85.194,462.692 86.5544,495.665 114.518,521.53 C139.157,544.37 176.039,554.807 208.084,543.462 C229.851,535.748 248.594,519.866 261.291,500.657 C266.581,492.792 271.418,483.868 274.139,474.641 C276.558,466.473 276.407,455.885 282.604,449.381 C289.86,441.818 274.29,430.474 279.127,423.97 C281.848,420.34 287.139,419.13 291.371,418.374 C295.906,417.617 300.441,417.769 304.975,418.676 C308.603,419.432 312.835,420.794 315.254,423.819 C320.242,430.323 304.522,441.667 311.777,449.23 C318.126,455.734 317.823,466.171 320.242,474.49 C322.963,483.716 327.8,492.64 333.09,500.506 C345.787,519.564 364.531,535.597 386.297,543.311 C418.342,554.655 455.224,544.219 479.863,521.379 C507.676,495.514 509.187,462.54 519.012,428.054 C520.826,421.701 524.454,416.559 528.989,411.87 C530.651,410.055 535.337,407.332 535.189566,404.458 C535.035,399.92 533.977,391.601 532.012,388.879 Z M265.675,449.23 C264.314,467.683 259.175,486.136 248.594,501.413 C240.885,512.455 230.304,521.228 218.363,527.429 C211.561,530.908 204.456,533.631 197.05,535.446 C178.76,540.135 158.958,539.832 141.273,532.874 C123.588,525.765 109.832,511.396 100.7631,495.06 C86.5544,469.649 71.59,424.121 98.6469,401.584 C104.542,396.593 112.553,392.206 120.111,390.694 C142.029,386.307 164.702,385.702 187.073,387.518 C207.782,389.181 230.153,391.299 247.536,403.853 C257.814,411.265 263.105,421.248 264.919,432.441 C265.826,437.734 265.977,443.482 265.675,449.23 Z M493.769,495.06 C484.7,511.396 470.945,525.765 453.411,532.723 C435.725,539.681 415.924,539.983 397.634,535.295 C390.227,533.479 383.123,530.757 376.321,527.278 C364.38,521.228 353.799,512.304 346.09,501.262 C335.358,485.985 330.369,467.532 329.009,449.079 C328.556,443.331 328.707,437.583 329.614,432.289 C331.428,420.945 336.718,410.962 346.997,403.702 C364.531,391.148 386.751,389.03 407.459,387.366 C429.83,385.551 452.353,386.156 474.421,390.543 C481.979,392.055 489.99,396.442 495.885,401.433 C522.942,424.121 507.827,469.649 493.769,495.06 Z" id="Shape" fill="#00B3B3"></path>
            </g>
        </g>
    </g>
</svg>
